<?xml version="1.0" standalone="no"?>
<!DOCTYPE svg PUBLIC "-//W3C//DTD SVG 20010904//EN"
 "http://www.w3.org/TR/2001/REC-SVG-20010904/DTD/svg10.dtd">
<svg version="1.0" xmlns="http://www.w3.org/2000/svg"
 width="1280.000000pt" height="640.000000pt" viewBox="0 0 1280.000000 640.000000"
 preserveAspectRatio="xMidYMid meet">
<metadata>
Created by potrace 1.15, written by Peter Selinger 2001-2017
</metadata>
<g transform="translate(0.000000,640.000000) scale(0.100000,-0.100000)"
fill="#000000" stroke="none">
<path d="M5310 4453 c-167 -27 -282 -68 -388 -137 -105 -68 -154 -117 -284
-285 -359 -461 -549 -652 -828 -832 -295 -191 -744 -345 -1155 -396 -179 -22
-781 -25 -945 -5 -511 65 -882 187 -1186 391 -323 216 -380 509 -149 759 l66
71 -36 7 c-108 20 -252 -35 -317 -121 -62 -80 -83 -165 -82 -320 2 -302 78
-473 318 -710 270 -267 630 -463 1156 -628 484 -152 924 -237 1485 -289 183
-17 797 -17 970 0 544 54 977 152 1395 319 339 134 491 218 701 387 111 89
303 276 341 332 13 19 25 34 28 34 3 0 15 -15 28 -34 38 -56 230 -243 341
-332 210 -169 362 -253 701 -387 418 -167 851 -265 1395 -319 173 -17 787 -17
970 0 561 52 1001 137 1485 289 526 165 886 361 1156 628 240 237 316 408 318
710 1 155 -20 240 -82 320 -65 86 -209 141 -317 121 l-36 -7 66 -71 c112 -122
160 -255 135 -381 -37 -192 -186 -345 -482 -493 -289 -145 -566 -222 -988
-276 -164 -20 -766 -17 -945 5 -411 51 -860 205 -1155 396 -279 180 -469 371
-828 832 -130 168 -179 217 -284 285 -263 172 -644 189 -1035 46 -116 -43
-282 -151 -400 -260 l-43 -40 -42 40 c-213 196 -429 298 -729 342 -98 15 -258
19 -319 9z"/>
</g>
</svg>
